# xmcd
#
# Track frame offsets:
#	150
#	12531
#	24906
#	41718
#	50914
#	65434
#	81418
#	93321
#	111270
#	129408
#	141573
#	153023
#	164074
#	177653
#	192994
#	204898
#	214723
#	227680
#	243083
#	256446
#
# Disc length: 3588 seconds
#
# Revision: 2
# Processed by: cddbd v1.5.2PL0 Copyright (c) Steve Scherf et al.
# Submitted via: audiograbber 1.83.01
#
DISCID=200e0214
DTITLE=Commander Cody and His Lost Planet Airmen - Live
DYEAR=2003
DGENRE=Country Rock
TTITLE0=Hot Rod Lincoln
TTITLE1=Riot in Cell Block Number Nine
TTITLE2=What's a Matter Now
TTITLE3=Get It
TTITLE4=Smoke, Smoke, Smoke that Cigarette
TTITLE5=Seeds and Stems Again Blues
TTITLE6=Truck Stop Rock
TTITLE7=Beat Me Daddy, Eight to the Bar
TTITLE8=Oh Mama Mama
TTITLE9=Rock That Boogie
TTITLE10=Rip it Up
TTITLE11=Lost in the Ozone
TTITLE12=Sister Sue
TTITLE13=Goin' Back to Tennessee
TTITLE14=Ain't Nothin' Shakin' But the Leaves on the Tree
TTITLE15=Mama Tried
TTITLE16=I Took Three Bennies and My Semi Truck Won't Start
TTITLE17=Four or Five Times
TTITLE18=Jailhouse Rock
TTITLE19=Keys to My Cadillac
EXTD=
EXTT0=Originally by Johnny Bond
EXTT1=
EXTT2=
EXTT3=
EXTT4=Originally by Johnny Bond
EXTT5=
EXTT6=
EXTT7=
EXTT8=
EXTT9=
EXTT10=
EXTT11=
EXTT12=
EXTT13=
EXTT14=
EXTT15=
EXTT16=
EXTT17=
EXTT18=
EXTT19=
PLAYORDER=
